<svg width="1791" height="1791" viewBox="0 0 1791 1791" fill="none" xmlns="http://www.w3.org/2000/svg">
<g clip-path="url(#clip0_9_2)">
<path d="M705.327 1161.91H864.67V722.765C864.67 705.823 865.2 688.034 866.259 669.397L753.501 759.868C748.56 763.595 743.619 766.137 738.678 767.492C734.09 768.847 729.326 769.525 724.385 769.525C717.327 769.525 710.797 768.17 704.798 765.459C698.798 762.41 694.387 759.021 691.563 755.294L649.213 699.385L888.493 504.211H998.074V1161.91H1139.42V1257.97H705.327V1161.91Z" fill="black"/>
</g>
<path fill-rule="evenodd" clip-rule="evenodd" d="M167.511 524.768C149.448 502.598 132.411 478.658 116.697 453.161C42.4246 583.647 0 734.619 0 895.5C0 1390.07 400.929 1791 895.5 1791C1390.07 1791 1791 1390.07 1791 895.5C1791 400.929 1390.07 0 895.5 0C789.132 0 687.095 18.5453 592.447 52.5788C592.664 52.9193 592.882 53.2601 593.099 53.6012C608.299 77.5116 622.333 102.848 634.948 129.425C716.705 101.627 804.342 86.5489 895.5 86.5489C1342.27 86.5489 1704.45 448.729 1704.45 895.5C1704.45 1342.27 1342.27 1704.45 895.5 1704.45C448.729 1704.45 86.5489 1342.27 86.5489 895.5C86.5489 764.514 117.681 640.799 172.949 531.351C171.126 529.174 169.314 526.98 167.511 524.768Z" fill="black"/>
<defs>
<clipPath id="clip0_9_2">
<rect width="493.297" height="754.671" fill="white" transform="translate(647.011 503.296)"/>
</clipPath>
</defs>
</svg>
